<mxfile host="Electron" modified="2024-06-10T11:57:36.983Z" agent="Mozilla/5.0 (Windows NT 10.0; Win64; x64) AppleWebKit/537.36 (KHTML, like Gecko) draw.io/23.1.5 Chrome/120.0.6099.109 Electron/28.1.0 Safari/537.36" etag="_a3tumKApdbwCNz46nUj" version="23.1.5" type="device">
  <diagram name="Page-1" id="xwO694Oei7Bs9DtKlXMm">
    <mxGraphModel dx="2673" dy="2014" grid="0" gridSize="10" guides="0" tooltips="1" connect="1" arrows="1" fold="1" page="1" pageScale="1" pageWidth="850" pageHeight="1100" math="0" shadow="0">
      <root>
        <mxCell id="0" />
        <mxCell id="1" parent="0" />
        <mxCell id="lIMlZDT6CVLQSgId9f5q-1" value="&lt;font style=&quot;font-size: 14px;&quot;&gt;Orderd_items&lt;/font&gt;" style="swimlane;fontStyle=0;childLayout=stackLayout;horizontal=1;startSize=30;horizontalStack=0;resizeParent=1;resizeParentMax=0;resizeLast=0;collapsible=1;marginBottom=0;whiteSpace=wrap;html=1;" parent="1" vertex="1">
          <mxGeometry x="745" y="1200" width="230" height="180" as="geometry" />
        </mxCell>
        <mxCell id="lIMlZDT6CVLQSgId9f5q-2" value="&lt;font style=&quot;font-size: 14px;&quot;&gt;&lt;u&gt;&lt;b&gt;Orderd_item_id&lt;/b&gt;&lt;/u&gt;&lt;/font&gt;" style="text;strokeColor=none;fillColor=none;align=center;verticalAlign=middle;spacingLeft=4;spacingRight=4;overflow=hidden;points=[[0,0.5],[1,0.5]];portConstraint=eastwest;rotatable=0;whiteSpace=wrap;html=1;" parent="lIMlZDT6CVLQSgId9f5q-1" vertex="1">
          <mxGeometry y="30" width="230" height="30" as="geometry" />
        </mxCell>
        <mxCell id="lIMlZDT6CVLQSgId9f5q-3" value="&lt;font style=&quot;font-size: 14px;&quot;&gt;Order_id:INT&lt;/font&gt;" style="text;strokeColor=none;fillColor=none;align=center;verticalAlign=middle;spacingLeft=4;spacingRight=4;overflow=hidden;points=[[0,0.5],[1,0.5]];portConstraint=eastwest;rotatable=0;whiteSpace=wrap;html=1;" parent="lIMlZDT6CVLQSgId9f5q-1" vertex="1">
          <mxGeometry y="60" width="230" height="30" as="geometry" />
        </mxCell>
        <mxCell id="lIMlZDT6CVLQSgId9f5q-4" value="&lt;font style=&quot;font-size: 14px;&quot;&gt;Product_id:INT&lt;/font&gt;" style="text;strokeColor=none;fillColor=none;align=center;verticalAlign=middle;spacingLeft=4;spacingRight=4;overflow=hidden;points=[[0,0.5],[1,0.5]];portConstraint=eastwest;rotatable=0;whiteSpace=wrap;html=1;" parent="lIMlZDT6CVLQSgId9f5q-1" vertex="1">
          <mxGeometry y="90" width="230" height="30" as="geometry" />
        </mxCell>
        <mxCell id="lIMlZDT6CVLQSgId9f5q-48" value="&lt;font style=&quot;font-size: 14px;&quot;&gt;Quantity:INT&lt;/font&gt;" style="text;html=1;align=center;verticalAlign=middle;whiteSpace=wrap;rounded=0;" parent="lIMlZDT6CVLQSgId9f5q-1" vertex="1">
          <mxGeometry y="120" width="230" height="30" as="geometry" />
        </mxCell>
        <mxCell id="lIMlZDT6CVLQSgId9f5q-47" value="&lt;font style=&quot;font-size: 14px;&quot;&gt;Price:DECIMAL(10.2)&lt;/font&gt;" style="text;html=1;align=center;verticalAlign=middle;whiteSpace=wrap;rounded=0;" parent="lIMlZDT6CVLQSgId9f5q-1" vertex="1">
          <mxGeometry y="150" width="230" height="30" as="geometry" />
        </mxCell>
        <mxCell id="lIMlZDT6CVLQSgId9f5q-82" value="" style="endArrow=none;html=1;rounded=0;exitX=0.167;exitY=0.947;exitDx=0;exitDy=0;exitPerimeter=0;entryX=0.174;entryY=0;entryDx=0;entryDy=0;entryPerimeter=0;" parent="lIMlZDT6CVLQSgId9f5q-1" source="lIMlZDT6CVLQSgId9f5q-47" target="lIMlZDT6CVLQSgId9f5q-2" edge="1">
          <mxGeometry width="50" height="50" relative="1" as="geometry">
            <mxPoint x="50" y="-10" as="sourcePoint" />
            <mxPoint x="100" y="-60" as="targetPoint" />
          </mxGeometry>
        </mxCell>
        <mxCell id="lIMlZDT6CVLQSgId9f5q-5" value="&lt;font style=&quot;font-size: 14px;&quot;&gt;Payment&lt;/font&gt;" style="swimlane;fontStyle=0;childLayout=stackLayout;horizontal=1;startSize=30;horizontalStack=0;resizeParent=1;resizeParentMax=0;resizeLast=0;collapsible=1;marginBottom=0;whiteSpace=wrap;html=1;" parent="1" vertex="1">
          <mxGeometry x="-120" y="1300" width="317.5" height="300" as="geometry" />
        </mxCell>
        <mxCell id="lIMlZDT6CVLQSgId9f5q-6" value="&lt;font style=&quot;font-size: 14px;&quot;&gt;&lt;u&gt;&lt;b&gt;Payment_id:INT&lt;/b&gt;&lt;/u&gt;&lt;/font&gt;" style="text;strokeColor=none;fillColor=none;align=center;verticalAlign=middle;spacingLeft=4;spacingRight=4;overflow=hidden;points=[[0,0.5],[1,0.5]];portConstraint=eastwest;rotatable=0;whiteSpace=wrap;html=1;" parent="lIMlZDT6CVLQSgId9f5q-5" vertex="1">
          <mxGeometry y="30" width="317.5" height="30" as="geometry" />
        </mxCell>
        <mxCell id="tOMD2bxdD2lX4mAQ1nXo-37" value="&lt;font style=&quot;font-size: 14px;&quot;&gt;user_id{foriegn key}&lt;/font&gt;" style="text;html=1;align=center;verticalAlign=middle;whiteSpace=wrap;rounded=0;" vertex="1" parent="lIMlZDT6CVLQSgId9f5q-5">
          <mxGeometry y="60" width="317.5" height="30" as="geometry" />
        </mxCell>
        <mxCell id="lIMlZDT6CVLQSgId9f5q-7" value="&lt;font style=&quot;font-size: 14px;&quot;&gt;Order_id:in=INT{foriegn key}&lt;/font&gt;" style="text;strokeColor=none;fillColor=none;align=center;verticalAlign=middle;spacingLeft=4;spacingRight=4;overflow=hidden;points=[[0,0.5],[1,0.5]];portConstraint=eastwest;rotatable=0;whiteSpace=wrap;html=1;" parent="lIMlZDT6CVLQSgId9f5q-5" vertex="1">
          <mxGeometry y="90" width="317.5" height="30" as="geometry" />
        </mxCell>
        <mxCell id="lIMlZDT6CVLQSgId9f5q-45" value="&lt;span style=&quot;font-size: 14px;&quot;&gt;exp month INT&lt;/span&gt;" style="text;html=1;align=center;verticalAlign=middle;whiteSpace=wrap;rounded=0;" parent="lIMlZDT6CVLQSgId9f5q-5" vertex="1">
          <mxGeometry y="120" width="317.5" height="30" as="geometry" />
        </mxCell>
        <mxCell id="tOMD2bxdD2lX4mAQ1nXo-38" value="&lt;font style=&quot;font-size: 14px;&quot;&gt;Credit card number&amp;nbsp; VARCHAR(16)&lt;/font&gt;" style="text;html=1;align=center;verticalAlign=middle;whiteSpace=wrap;rounded=0;" vertex="1" parent="lIMlZDT6CVLQSgId9f5q-5">
          <mxGeometry y="150" width="317.5" height="30" as="geometry" />
        </mxCell>
        <mxCell id="tOMD2bxdD2lX4mAQ1nXo-39" value="&lt;font style=&quot;font-size: 14px;&quot;&gt;Name-on_card&amp;nbsp; VARCHAR(100)&lt;/font&gt;" style="text;html=1;align=center;verticalAlign=middle;whiteSpace=wrap;rounded=0;" vertex="1" parent="lIMlZDT6CVLQSgId9f5q-5">
          <mxGeometry y="180" width="317.5" height="30" as="geometry" />
        </mxCell>
        <mxCell id="lIMlZDT6CVLQSgId9f5q-44" value="&lt;span style=&quot;font-size: 14px;&quot;&gt;exp year INT&lt;/span&gt;" style="text;html=1;align=center;verticalAlign=middle;whiteSpace=wrap;rounded=0;" parent="lIMlZDT6CVLQSgId9f5q-5" vertex="1">
          <mxGeometry y="210" width="317.5" height="30" as="geometry" />
        </mxCell>
        <mxCell id="lIMlZDT6CVLQSgId9f5q-43" value="&lt;span style=&quot;font-size: 14px;&quot;&gt;payment_date&amp;nbsp; DATETIME&lt;/span&gt;" style="text;html=1;align=center;verticalAlign=middle;whiteSpace=wrap;rounded=0;" parent="lIMlZDT6CVLQSgId9f5q-5" vertex="1">
          <mxGeometry y="240" width="317.5" height="30" as="geometry" />
        </mxCell>
        <mxCell id="lIMlZDT6CVLQSgId9f5q-8" value="&lt;font style=&quot;font-size: 14px;&quot;&gt;CVV:VARCHAR(4)&lt;/font&gt;" style="text;strokeColor=none;fillColor=none;align=center;verticalAlign=middle;spacingLeft=4;spacingRight=4;overflow=hidden;points=[[0,0.5],[1,0.5]];portConstraint=eastwest;rotatable=0;whiteSpace=wrap;html=1;" parent="lIMlZDT6CVLQSgId9f5q-5" vertex="1">
          <mxGeometry y="270" width="317.5" height="30" as="geometry" />
        </mxCell>
        <mxCell id="lIMlZDT6CVLQSgId9f5q-83" value="" style="endArrow=none;html=1;rounded=0;exitX=0.137;exitY=0.933;exitDx=0;exitDy=0;exitPerimeter=0;" parent="lIMlZDT6CVLQSgId9f5q-5" edge="1" source="lIMlZDT6CVLQSgId9f5q-8">
          <mxGeometry width="50" height="50" relative="1" as="geometry">
            <mxPoint x="40" y="237" as="sourcePoint" />
            <mxPoint x="40" y="30" as="targetPoint" />
          </mxGeometry>
        </mxCell>
        <mxCell id="lIMlZDT6CVLQSgId9f5q-9" value="Cart" style="swimlane;fontStyle=0;childLayout=stackLayout;horizontal=1;startSize=30;horizontalStack=0;resizeParent=1;resizeParentMax=0;resizeLast=0;collapsible=1;marginBottom=0;whiteSpace=wrap;html=1;" parent="1" vertex="1">
          <mxGeometry x="420" y="760" width="280" height="150" as="geometry" />
        </mxCell>
        <mxCell id="lIMlZDT6CVLQSgId9f5q-10" value="&lt;font style=&quot;font-size: 14px;&quot;&gt;&lt;u&gt;&lt;b&gt;Card_id:INT&lt;/b&gt;&lt;/u&gt;&lt;/font&gt;" style="text;strokeColor=none;fillColor=none;align=center;verticalAlign=middle;spacingLeft=4;spacingRight=4;overflow=hidden;points=[[0,0.5],[1,0.5]];portConstraint=eastwest;rotatable=0;whiteSpace=wrap;html=1;" parent="lIMlZDT6CVLQSgId9f5q-9" vertex="1">
          <mxGeometry y="30" width="280" height="30" as="geometry" />
        </mxCell>
        <mxCell id="lIMlZDT6CVLQSgId9f5q-11" value="&lt;font style=&quot;font-size: 14px;&quot;&gt;User_id:INT&lt;/font&gt;" style="text;strokeColor=none;fillColor=none;align=center;verticalAlign=middle;spacingLeft=4;spacingRight=4;overflow=hidden;points=[[0,0.5],[1,0.5]];portConstraint=eastwest;rotatable=0;whiteSpace=wrap;html=1;" parent="lIMlZDT6CVLQSgId9f5q-9" vertex="1">
          <mxGeometry y="60" width="280" height="30" as="geometry" />
        </mxCell>
        <mxCell id="lIMlZDT6CVLQSgId9f5q-12" value="&lt;font style=&quot;font-size: 14px;&quot;&gt;Product_id:INT&lt;/font&gt;" style="text;strokeColor=none;fillColor=none;align=center;verticalAlign=middle;spacingLeft=4;spacingRight=4;overflow=hidden;points=[[0,0.5],[1,0.5]];portConstraint=eastwest;rotatable=0;whiteSpace=wrap;html=1;" parent="lIMlZDT6CVLQSgId9f5q-9" vertex="1">
          <mxGeometry y="90" width="280" height="30" as="geometry" />
        </mxCell>
        <mxCell id="lIMlZDT6CVLQSgId9f5q-41" value="&lt;font style=&quot;font-size: 14px;&quot;&gt;Added_At:TIMESTAMP&lt;/font&gt;" style="text;html=1;align=center;verticalAlign=middle;whiteSpace=wrap;rounded=0;" parent="lIMlZDT6CVLQSgId9f5q-9" vertex="1">
          <mxGeometry y="120" width="280" height="30" as="geometry" />
        </mxCell>
        <mxCell id="lIMlZDT6CVLQSgId9f5q-80" value="" style="endArrow=none;html=1;rounded=0;exitX=0.15;exitY=-0.013;exitDx=0;exitDy=0;exitPerimeter=0;entryX=0.14;entryY=1.076;entryDx=0;entryDy=0;entryPerimeter=0;" parent="lIMlZDT6CVLQSgId9f5q-9" source="lIMlZDT6CVLQSgId9f5q-10" edge="1" target="lIMlZDT6CVLQSgId9f5q-41">
          <mxGeometry width="50" height="50" relative="1" as="geometry">
            <mxPoint x="32" y="32" as="sourcePoint" />
            <mxPoint x="40" y="144" as="targetPoint" />
          </mxGeometry>
        </mxCell>
        <mxCell id="lIMlZDT6CVLQSgId9f5q-13" value="&lt;font style=&quot;font-size: 14px;&quot;&gt;Order&lt;/font&gt;" style="swimlane;fontStyle=0;childLayout=stackLayout;horizontal=1;startSize=30;horizontalStack=0;resizeParent=1;resizeParentMax=0;resizeLast=0;collapsible=1;marginBottom=0;whiteSpace=wrap;html=1;" parent="1" vertex="1">
          <mxGeometry x="-120" y="720" width="295" height="210" as="geometry" />
        </mxCell>
        <mxCell id="lIMlZDT6CVLQSgId9f5q-14" value="&lt;font style=&quot;font-size: 14px;&quot;&gt;&lt;u&gt;&lt;b&gt;Order_id :INT&lt;/b&gt;&lt;/u&gt;&lt;/font&gt;" style="text;strokeColor=none;fillColor=none;align=center;verticalAlign=middle;spacingLeft=4;spacingRight=4;overflow=hidden;points=[[0,0.5],[1,0.5]];portConstraint=eastwest;rotatable=0;whiteSpace=wrap;html=1;" parent="lIMlZDT6CVLQSgId9f5q-13" vertex="1">
          <mxGeometry y="30" width="295" height="30" as="geometry" />
        </mxCell>
        <mxCell id="QqdPBUXhQjPoTKRg3ORw-1" value="&lt;font style=&quot;font-size: 14px;&quot;&gt;Address _id&amp;nbsp; INT&lt;/font&gt;" style="text;html=1;align=center;verticalAlign=middle;whiteSpace=wrap;rounded=0;" parent="lIMlZDT6CVLQSgId9f5q-13" vertex="1">
          <mxGeometry y="60" width="295" height="30" as="geometry" />
        </mxCell>
        <mxCell id="lIMlZDT6CVLQSgId9f5q-30" value="&lt;font style=&quot;font-size: 14px;&quot;&gt;Total_Amount:DECIMAL(10.2)&lt;/font&gt;" style="text;strokeColor=none;fillColor=none;align=center;verticalAlign=middle;spacingLeft=4;spacingRight=4;overflow=hidden;points=[[0,0.5],[1,0.5]];portConstraint=eastwest;rotatable=0;whiteSpace=wrap;html=1;" parent="lIMlZDT6CVLQSgId9f5q-13" vertex="1">
          <mxGeometry y="90" width="295" height="30" as="geometry" />
        </mxCell>
        <mxCell id="QqdPBUXhQjPoTKRg3ORw-4" value="&lt;font style=&quot;font-size: 14px;&quot;&gt;Order Date&amp;nbsp; &amp;nbsp;DATETIME&lt;/font&gt;" style="text;html=1;align=center;verticalAlign=middle;whiteSpace=wrap;rounded=0;" parent="lIMlZDT6CVLQSgId9f5q-13" vertex="1">
          <mxGeometry y="120" width="295" height="30" as="geometry" />
        </mxCell>
        <mxCell id="lIMlZDT6CVLQSgId9f5q-35" value="&lt;span style=&quot;font-size: 14px;&quot;&gt;Total Amount DECIMAL(10.2)&lt;/span&gt;" style="text;html=1;align=center;verticalAlign=middle;whiteSpace=wrap;rounded=0;" parent="lIMlZDT6CVLQSgId9f5q-13" vertex="1">
          <mxGeometry y="150" width="295" height="30" as="geometry" />
        </mxCell>
        <mxCell id="lIMlZDT6CVLQSgId9f5q-37" value="&lt;span style=&quot;font-size: 14px;&quot;&gt;Order Status VARCHAR(50)&lt;/span&gt;" style="text;html=1;align=center;verticalAlign=middle;whiteSpace=wrap;rounded=0;" parent="lIMlZDT6CVLQSgId9f5q-13" vertex="1">
          <mxGeometry y="180" width="295" height="30" as="geometry" />
        </mxCell>
        <mxCell id="lIMlZDT6CVLQSgId9f5q-81" value="" style="endArrow=none;html=1;rounded=0;exitX=0.136;exitY=0;exitDx=0;exitDy=0;exitPerimeter=0;" parent="lIMlZDT6CVLQSgId9f5q-13" source="lIMlZDT6CVLQSgId9f5q-14" edge="1">
          <mxGeometry width="50" height="50" relative="1" as="geometry">
            <mxPoint x="70" y="-40" as="sourcePoint" />
            <mxPoint x="37" y="210" as="targetPoint" />
          </mxGeometry>
        </mxCell>
        <mxCell id="lIMlZDT6CVLQSgId9f5q-21" value="&lt;font style=&quot;font-size: 18px;&quot;&gt;User&lt;/font&gt;" style="swimlane;fontStyle=0;childLayout=stackLayout;horizontal=1;startSize=30;horizontalStack=0;resizeParent=1;resizeParentMax=0;resizeLast=0;collapsible=1;marginBottom=0;whiteSpace=wrap;html=1;" parent="1" vertex="1">
          <mxGeometry x="-115" y="160" width="250" height="110" as="geometry" />
        </mxCell>
        <mxCell id="lIMlZDT6CVLQSgId9f5q-22" value="&lt;u&gt;&lt;b&gt;&lt;font style=&quot;font-size: 14px;&quot;&gt;User _id :INT&lt;/font&gt;&lt;/b&gt;&lt;/u&gt;" style="text;strokeColor=none;fillColor=none;align=center;verticalAlign=middle;spacingLeft=4;spacingRight=4;overflow=hidden;points=[[0,0.5],[1,0.5]];portConstraint=eastwest;rotatable=0;whiteSpace=wrap;html=1;" parent="lIMlZDT6CVLQSgId9f5q-21" vertex="1">
          <mxGeometry y="30" width="250" height="30" as="geometry" />
        </mxCell>
        <mxCell id="lIMlZDT6CVLQSgId9f5q-25" value="&lt;font style=&quot;font-size: 14px;&quot;&gt;Email:VARCHAR(60)&lt;/font&gt;" style="text;strokeColor=none;fillColor=none;align=center;verticalAlign=middle;spacingLeft=4;spacingRight=4;overflow=hidden;points=[[0,0.5],[1,0.5]];portConstraint=eastwest;rotatable=0;whiteSpace=wrap;html=1;" parent="lIMlZDT6CVLQSgId9f5q-21" vertex="1">
          <mxGeometry y="60" width="250" height="30" as="geometry" />
        </mxCell>
        <mxCell id="lIMlZDT6CVLQSgId9f5q-24" value="&lt;font style=&quot;font-size: 14px;&quot;&gt;Password:VARCHAR(8)&lt;/font&gt;" style="text;strokeColor=none;fillColor=none;align=center;verticalAlign=middle;spacingLeft=4;spacingRight=4;overflow=hidden;points=[[0,0.5],[1,0.5]];portConstraint=eastwest;rotatable=0;whiteSpace=wrap;html=1;" parent="lIMlZDT6CVLQSgId9f5q-21" vertex="1">
          <mxGeometry y="90" width="250" height="20" as="geometry" />
        </mxCell>
        <mxCell id="lIMlZDT6CVLQSgId9f5q-79" value="" style="endArrow=none;html=1;rounded=0;entryX=0.134;entryY=-0.013;entryDx=0;entryDy=0;entryPerimeter=0;" parent="lIMlZDT6CVLQSgId9f5q-21" target="lIMlZDT6CVLQSgId9f5q-22" edge="1">
          <mxGeometry width="50" height="50" relative="1" as="geometry">
            <mxPoint x="34" y="107" as="sourcePoint" />
            <mxPoint x="35" y="30" as="targetPoint" />
          </mxGeometry>
        </mxCell>
        <mxCell id="lIMlZDT6CVLQSgId9f5q-88" value="&lt;span style=&quot;font-size: 14px;&quot;&gt;places&lt;/span&gt;" style="shape=rhombus;perimeter=rhombusPerimeter;whiteSpace=wrap;html=1;align=center;" parent="1" vertex="1">
          <mxGeometry x="-60" y="560" width="120" height="60" as="geometry" />
        </mxCell>
        <mxCell id="lIMlZDT6CVLQSgId9f5q-89" value="&lt;span style=&quot;font-size: 14px;&quot;&gt;contains&lt;/span&gt;" style="shape=rhombus;perimeter=rhombusPerimeter;whiteSpace=wrap;html=1;align=center;" parent="1" vertex="1">
          <mxGeometry x="530" y="600" width="120" height="60" as="geometry" />
        </mxCell>
        <mxCell id="lIMlZDT6CVLQSgId9f5q-90" value="&lt;span style=&quot;font-size: 14px;&quot;&gt;contains&lt;/span&gt;" style="shape=rhombus;perimeter=rhombusPerimeter;whiteSpace=wrap;html=1;align=center;" parent="1" vertex="1">
          <mxGeometry x="220" y="580" width="120" height="60" as="geometry" />
        </mxCell>
        <mxCell id="lIMlZDT6CVLQSgId9f5q-91" value="&lt;span style=&quot;font-size: 14px;&quot;&gt;includes&lt;/span&gt;" style="shape=rhombus;perimeter=rhombusPerimeter;whiteSpace=wrap;html=1;align=center;" parent="1" vertex="1">
          <mxGeometry x="800" y="770" width="120" height="60" as="geometry" />
        </mxCell>
        <mxCell id="lIMlZDT6CVLQSgId9f5q-93" value="&lt;font style=&quot;font-size: 14px;&quot;&gt;Contains&lt;/font&gt;" style="shape=rhombus;perimeter=rhombusPerimeter;whiteSpace=wrap;html=1;align=center;" parent="1" vertex="1">
          <mxGeometry x="365" y="1060" width="120" height="60" as="geometry" />
        </mxCell>
        <mxCell id="lIMlZDT6CVLQSgId9f5q-100" value="" style="endArrow=none;html=1;rounded=0;exitX=0.5;exitY=0;exitDx=0;exitDy=0;entryX=0.538;entryY=1.07;entryDx=0;entryDy=0;entryPerimeter=0;" parent="1" source="lIMlZDT6CVLQSgId9f5q-92" target="lIMlZDT6CVLQSgId9f5q-37" edge="1">
          <mxGeometry width="50" height="50" relative="1" as="geometry">
            <mxPoint x="30" y="1180" as="sourcePoint" />
            <mxPoint x="36.054999999999836" y="961.7400000000002" as="targetPoint" />
          </mxGeometry>
        </mxCell>
        <mxCell id="lIMlZDT6CVLQSgId9f5q-101" value="" style="endArrow=none;html=1;rounded=0;exitX=0.5;exitY=1;exitDx=0;exitDy=0;entryX=0.403;entryY=-0.011;entryDx=0;entryDy=0;entryPerimeter=0;strokeColor=#000000;" parent="1" source="lIMlZDT6CVLQSgId9f5q-88" target="lIMlZDT6CVLQSgId9f5q-13" edge="1">
          <mxGeometry width="50" height="50" relative="1" as="geometry">
            <mxPoint x="340" y="470" as="sourcePoint" />
            <mxPoint x="390" y="420" as="targetPoint" />
          </mxGeometry>
        </mxCell>
        <mxCell id="lIMlZDT6CVLQSgId9f5q-102" value="" style="endArrow=none;html=1;rounded=0;exitX=0.5;exitY=0;exitDx=0;exitDy=0;entryX=0.45;entryY=1.038;entryDx=0;entryDy=0;entryPerimeter=0;" parent="1" source="lIMlZDT6CVLQSgId9f5q-88" edge="1" target="lIMlZDT6CVLQSgId9f5q-24">
          <mxGeometry width="50" height="50" relative="1" as="geometry">
            <mxPoint x="-10" y="560" as="sourcePoint" />
            <mxPoint y="450" as="targetPoint" />
          </mxGeometry>
        </mxCell>
        <mxCell id="lIMlZDT6CVLQSgId9f5q-105" value="" style="endArrow=none;html=1;rounded=0;exitX=0.5;exitY=0;exitDx=0;exitDy=0;" parent="1" source="lIMlZDT6CVLQSgId9f5q-90" edge="1" target="lIMlZDT6CVLQSgId9f5q-24">
          <mxGeometry width="50" height="50" relative="1" as="geometry">
            <mxPoint x="10" y="500" as="sourcePoint" />
            <mxPoint x="60" y="450" as="targetPoint" />
            <Array as="points">
              <mxPoint x="280" y="550" />
            </Array>
          </mxGeometry>
        </mxCell>
        <mxCell id="lIMlZDT6CVLQSgId9f5q-107" value="" style="endArrow=none;html=1;rounded=0;exitX=0.5;exitY=0;exitDx=0;exitDy=0;entryX=0.597;entryY=1;entryDx=0;entryDy=0;entryPerimeter=0;strokeColor=#000000;" parent="1" source="lIMlZDT6CVLQSgId9f5q-89" target="tOMD2bxdD2lX4mAQ1nXo-28" edge="1">
          <mxGeometry width="50" height="50" relative="1" as="geometry">
            <mxPoint x="550" y="580" as="sourcePoint" />
            <mxPoint x="550" y="490" as="targetPoint" />
            <Array as="points" />
          </mxGeometry>
        </mxCell>
        <mxCell id="lIMlZDT6CVLQSgId9f5q-108" value="" style="endArrow=none;html=1;rounded=0;exitX=0.603;exitY=-0.012;exitDx=0;exitDy=0;exitPerimeter=0;entryX=0.5;entryY=1;entryDx=0;entryDy=0;" parent="1" source="lIMlZDT6CVLQSgId9f5q-9" target="lIMlZDT6CVLQSgId9f5q-89" edge="1">
          <mxGeometry width="50" height="50" relative="1" as="geometry">
            <mxPoint x="500" y="700" as="sourcePoint" />
            <mxPoint x="550" y="650" as="targetPoint" />
          </mxGeometry>
        </mxCell>
        <mxCell id="lIMlZDT6CVLQSgId9f5q-109" value="" style="endArrow=none;html=1;rounded=0;exitX=1;exitY=0.5;exitDx=0;exitDy=0;entryX=0.191;entryY=-0.012;entryDx=0;entryDy=0;entryPerimeter=0;strokeColor=#000000;" parent="1" source="lIMlZDT6CVLQSgId9f5q-90" target="lIMlZDT6CVLQSgId9f5q-9" edge="1">
          <mxGeometry width="50" height="50" relative="1" as="geometry">
            <mxPoint x="340" y="640" as="sourcePoint" />
            <mxPoint x="390" y="590" as="targetPoint" />
            <Array as="points">
              <mxPoint x="473" y="610" />
            </Array>
          </mxGeometry>
        </mxCell>
        <mxCell id="lIMlZDT6CVLQSgId9f5q-113" value="" style="endArrow=none;html=1;rounded=0;exitX=0;exitY=0.5;exitDx=0;exitDy=0;entryX=0.695;entryY=1;entryDx=0;entryDy=0;entryPerimeter=0;" parent="1" source="lIMlZDT6CVLQSgId9f5q-93" target="lIMlZDT6CVLQSgId9f5q-37" edge="1">
          <mxGeometry width="50" height="50" relative="1" as="geometry">
            <mxPoint x="40" y="1010" as="sourcePoint" />
            <mxPoint x="101.25" y="960" as="targetPoint" />
          </mxGeometry>
        </mxCell>
        <mxCell id="lIMlZDT6CVLQSgId9f5q-115" value="" style="endArrow=none;html=1;rounded=0;exitX=0.5;exitY=0;exitDx=0;exitDy=0;strokeColor=#000000;entryX=0.75;entryY=1;entryDx=0;entryDy=0;" parent="1" source="lIMlZDT6CVLQSgId9f5q-91" edge="1" target="tOMD2bxdD2lX4mAQ1nXo-28">
          <mxGeometry width="50" height="50" relative="1" as="geometry">
            <mxPoint x="590" y="540" as="sourcePoint" />
            <mxPoint x="640" y="490" as="targetPoint" />
          </mxGeometry>
        </mxCell>
        <mxCell id="lIMlZDT6CVLQSgId9f5q-116" value="" style="endArrow=none;html=1;rounded=0;exitX=0.5;exitY=0;exitDx=0;exitDy=0;" parent="1" source="lIMlZDT6CVLQSgId9f5q-1" edge="1">
          <mxGeometry width="50" height="50" relative="1" as="geometry">
            <mxPoint x="810" y="880" as="sourcePoint" />
            <mxPoint x="860" y="830" as="targetPoint" />
          </mxGeometry>
        </mxCell>
        <mxCell id="lIMlZDT6CVLQSgId9f5q-117" value="" style="endArrow=none;html=1;rounded=0;entryX=0.25;entryY=0;entryDx=0;entryDy=0;exitX=1;exitY=0.5;exitDx=0;exitDy=0;strokeColor=#000000;" parent="1" source="lIMlZDT6CVLQSgId9f5q-93" target="lIMlZDT6CVLQSgId9f5q-1" edge="1">
          <mxGeometry width="50" height="50" relative="1" as="geometry">
            <mxPoint x="490" y="1090" as="sourcePoint" />
            <mxPoint x="540" y="1040" as="targetPoint" />
          </mxGeometry>
        </mxCell>
        <mxCell id="lIMlZDT6CVLQSgId9f5q-120" value="&lt;font style=&quot;font-size: 14px;&quot;&gt;PK&lt;/font&gt;" style="text;html=1;align=center;verticalAlign=middle;whiteSpace=wrap;rounded=0;" parent="1" vertex="1">
          <mxGeometry x="-130" y="740" width="60" height="50" as="geometry" />
        </mxCell>
        <mxCell id="lIMlZDT6CVLQSgId9f5q-122" value="&lt;font style=&quot;font-size: 14px;&quot;&gt;PK&lt;/font&gt;" style="text;html=1;align=center;verticalAlign=middle;whiteSpace=wrap;rounded=0;" parent="1" vertex="1">
          <mxGeometry x="410" y="790" width="60" height="30" as="geometry" />
        </mxCell>
        <mxCell id="lIMlZDT6CVLQSgId9f5q-124" value="&lt;font style=&quot;font-size: 14px;&quot;&gt;PK&lt;/font&gt;" style="text;html=1;align=center;verticalAlign=middle;whiteSpace=wrap;rounded=0;" parent="1" vertex="1">
          <mxGeometry x="740" y="1230" width="60" height="30" as="geometry" />
        </mxCell>
        <mxCell id="lIMlZDT6CVLQSgId9f5q-127" value="&lt;font style=&quot;font-size: 14px;&quot;&gt;FK&lt;/font&gt;" style="text;html=1;align=center;verticalAlign=middle;whiteSpace=wrap;rounded=0;" parent="1" vertex="1">
          <mxGeometry x="410" y="820" width="60" height="30" as="geometry" />
        </mxCell>
        <mxCell id="lIMlZDT6CVLQSgId9f5q-128" value="&lt;font style=&quot;font-size: 14px;&quot;&gt;FK&lt;/font&gt;" style="text;html=1;align=center;verticalAlign=middle;whiteSpace=wrap;rounded=0;" parent="1" vertex="1">
          <mxGeometry x="410" y="850" width="60" height="30" as="geometry" />
        </mxCell>
        <mxCell id="lIMlZDT6CVLQSgId9f5q-130" value="&lt;font style=&quot;font-size: 14px;&quot;&gt;FK&lt;/font&gt;" style="text;html=1;align=center;verticalAlign=middle;whiteSpace=wrap;rounded=0;" parent="1" vertex="1">
          <mxGeometry x="740" y="1260" width="60" height="30" as="geometry" />
        </mxCell>
        <mxCell id="lIMlZDT6CVLQSgId9f5q-131" value="&lt;font style=&quot;font-size: 14px;&quot;&gt;FK&lt;/font&gt;" style="text;html=1;align=center;verticalAlign=middle;whiteSpace=wrap;rounded=0;" parent="1" vertex="1">
          <mxGeometry x="740" y="1290" width="60" height="30" as="geometry" />
        </mxCell>
        <mxCell id="lIMlZDT6CVLQSgId9f5q-132" value="FK" style="text;html=1;align=center;verticalAlign=middle;whiteSpace=wrap;rounded=0;" parent="1" vertex="1">
          <mxGeometry x="-130" y="785" width="60" height="30" as="geometry" />
        </mxCell>
        <mxCell id="lIMlZDT6CVLQSgId9f5q-133" value="&lt;font style=&quot;font-size: 24px;&quot;&gt;1&lt;/font&gt;" style="text;html=1;align=center;verticalAlign=middle;whiteSpace=wrap;rounded=0;" parent="1" vertex="1">
          <mxGeometry x="-57" y="280" width="60" height="30" as="geometry" />
        </mxCell>
        <mxCell id="lIMlZDT6CVLQSgId9f5q-134" value="&lt;font style=&quot;font-size: 24px;&quot;&gt;*&lt;/font&gt;" style="text;html=1;align=center;verticalAlign=middle;whiteSpace=wrap;rounded=0;" parent="1" vertex="1">
          <mxGeometry x="-60" y="690" width="60" height="30" as="geometry" />
        </mxCell>
        <mxCell id="lIMlZDT6CVLQSgId9f5q-135" value="&lt;font style=&quot;font-size: 24px;&quot;&gt;1&lt;/font&gt;" style="text;html=1;align=center;verticalAlign=middle;whiteSpace=wrap;rounded=0;" parent="1" vertex="1">
          <mxGeometry x="20" y="274" width="60" height="30" as="geometry" />
        </mxCell>
        <mxCell id="lIMlZDT6CVLQSgId9f5q-138" value="&lt;font style=&quot;font-size: 24px;&quot;&gt;*&lt;/font&gt;" style="text;html=1;align=center;verticalAlign=middle;whiteSpace=wrap;rounded=0;" parent="1" vertex="1">
          <mxGeometry x="540" y="730" width="60" height="30" as="geometry" />
        </mxCell>
        <mxCell id="lIMlZDT6CVLQSgId9f5q-140" value="&lt;span style=&quot;font-size: 24px;&quot;&gt;1&lt;/span&gt;" style="text;html=1;align=center;verticalAlign=middle;whiteSpace=wrap;rounded=0;" parent="1" vertex="1">
          <mxGeometry x="700" y="1180" width="60" height="30" as="geometry" />
        </mxCell>
        <mxCell id="lIMlZDT6CVLQSgId9f5q-141" value="&lt;font style=&quot;font-size: 24px;&quot;&gt;*&lt;/font&gt;" style="text;html=1;align=center;verticalAlign=middle;whiteSpace=wrap;rounded=0;" parent="1" vertex="1">
          <mxGeometry x="820" y="1170" width="60" height="30" as="geometry" />
        </mxCell>
        <mxCell id="lIMlZDT6CVLQSgId9f5q-142" value="&lt;font style=&quot;font-size: 24px;&quot;&gt;1&lt;/font&gt;" style="text;html=1;align=center;verticalAlign=middle;whiteSpace=wrap;rounded=0;" parent="1" vertex="1">
          <mxGeometry x="-29" y="929" width="60" height="30" as="geometry" />
        </mxCell>
        <mxCell id="lIMlZDT6CVLQSgId9f5q-143" value="&lt;font style=&quot;font-size: 24px;&quot;&gt;1&lt;/font&gt;" style="text;html=1;align=center;verticalAlign=middle;whiteSpace=wrap;rounded=0;" parent="1" vertex="1">
          <mxGeometry x="116" y="933" width="60" height="30" as="geometry" />
        </mxCell>
        <mxCell id="lIMlZDT6CVLQSgId9f5q-144" value="&lt;font style=&quot;font-size: 24px;&quot;&gt;1&lt;/font&gt;" style="text;html=1;align=center;verticalAlign=middle;whiteSpace=wrap;rounded=0;" parent="1" vertex="1">
          <mxGeometry x="-10" y="1250" width="60" height="30" as="geometry" />
        </mxCell>
        <mxCell id="lIMlZDT6CVLQSgId9f5q-145" value="&lt;font style=&quot;font-size: 24px;&quot;&gt;1&lt;/font&gt;" style="text;html=1;align=center;verticalAlign=middle;whiteSpace=wrap;rounded=0;" parent="1" vertex="1">
          <mxGeometry x="600" y="490" width="60" height="30" as="geometry" />
        </mxCell>
        <mxCell id="lIMlZDT6CVLQSgId9f5q-146" value="" style="swimlane;startSize=0;" parent="1" vertex="1">
          <mxGeometry x="360" y="1980" width="780" height="850" as="geometry" />
        </mxCell>
        <mxCell id="lIMlZDT6CVLQSgId9f5q-147" value="&lt;font style=&quot;font-size: 18px;&quot;&gt;&lt;u style=&quot;&quot;&gt;Proposed E-commerce&amp;nbsp; Website&lt;/u&gt;&lt;/font&gt;" style="text;html=1;align=center;verticalAlign=middle;whiteSpace=wrap;rounded=0;" parent="lIMlZDT6CVLQSgId9f5q-146" vertex="1">
          <mxGeometry x="67.5" y="10" width="235" height="20" as="geometry" />
        </mxCell>
        <mxCell id="lIMlZDT6CVLQSgId9f5q-148" value="" style="ellipse;whiteSpace=wrap;html=1;" parent="lIMlZDT6CVLQSgId9f5q-146" vertex="1">
          <mxGeometry x="25" y="70" width="330" height="80" as="geometry" />
        </mxCell>
        <mxCell id="lIMlZDT6CVLQSgId9f5q-149" value="&lt;font style=&quot;font-size: 18px;&quot;&gt;Sign up&lt;/font&gt;" style="text;html=1;align=center;verticalAlign=middle;whiteSpace=wrap;rounded=0;" parent="lIMlZDT6CVLQSgId9f5q-146" vertex="1">
          <mxGeometry x="160" y="95" width="80" height="30" as="geometry" />
        </mxCell>
        <mxCell id="lIMlZDT6CVLQSgId9f5q-150" value="" style="ellipse;whiteSpace=wrap;html=1;" parent="lIMlZDT6CVLQSgId9f5q-146" vertex="1">
          <mxGeometry x="25" y="170" width="320" height="80" as="geometry" />
        </mxCell>
        <mxCell id="lIMlZDT6CVLQSgId9f5q-151" value="&lt;font style=&quot;font-size: 18px;&quot;&gt;Login&lt;/font&gt;" style="text;html=1;align=center;verticalAlign=middle;whiteSpace=wrap;rounded=0;" parent="lIMlZDT6CVLQSgId9f5q-146" vertex="1">
          <mxGeometry x="160" y="195" width="60" height="30" as="geometry" />
        </mxCell>
        <mxCell id="lIMlZDT6CVLQSgId9f5q-152" value="" style="ellipse;whiteSpace=wrap;html=1;" parent="lIMlZDT6CVLQSgId9f5q-146" vertex="1">
          <mxGeometry x="20" y="280" width="320" height="80" as="geometry" />
        </mxCell>
        <mxCell id="lIMlZDT6CVLQSgId9f5q-153" value="&lt;font style=&quot;font-size: 18px;&quot;&gt;Browse Product&lt;/font&gt;" style="text;html=1;align=center;verticalAlign=middle;whiteSpace=wrap;rounded=0;" parent="lIMlZDT6CVLQSgId9f5q-146" vertex="1">
          <mxGeometry x="125" y="300" width="120" height="30" as="geometry" />
        </mxCell>
        <mxCell id="lIMlZDT6CVLQSgId9f5q-154" value="" style="ellipse;whiteSpace=wrap;html=1;" parent="lIMlZDT6CVLQSgId9f5q-146" vertex="1">
          <mxGeometry x="20" y="390" width="320" height="80" as="geometry" />
        </mxCell>
        <mxCell id="lIMlZDT6CVLQSgId9f5q-156" value="" style="ellipse;whiteSpace=wrap;html=1;" parent="lIMlZDT6CVLQSgId9f5q-146" vertex="1">
          <mxGeometry x="30" y="510" width="320" height="80" as="geometry" />
        </mxCell>
        <mxCell id="lIMlZDT6CVLQSgId9f5q-157" value="" style="ellipse;whiteSpace=wrap;html=1;" parent="lIMlZDT6CVLQSgId9f5q-146" vertex="1">
          <mxGeometry x="30" y="620" width="320" height="80" as="geometry" />
        </mxCell>
        <mxCell id="lIMlZDT6CVLQSgId9f5q-158" value="&lt;font style=&quot;font-size: 18px;&quot;&gt;Add to chart&lt;/font&gt;" style="text;html=1;align=center;verticalAlign=middle;whiteSpace=wrap;rounded=0;" parent="lIMlZDT6CVLQSgId9f5q-146" vertex="1">
          <mxGeometry x="140" y="415" width="100" height="30" as="geometry" />
        </mxCell>
        <mxCell id="lIMlZDT6CVLQSgId9f5q-159" value="&lt;font style=&quot;font-size: 18px;&quot;&gt;Checkout&lt;/font&gt;" style="text;html=1;align=center;verticalAlign=middle;whiteSpace=wrap;rounded=0;" parent="lIMlZDT6CVLQSgId9f5q-146" vertex="1">
          <mxGeometry x="155" y="535" width="60" height="30" as="geometry" />
        </mxCell>
        <mxCell id="lIMlZDT6CVLQSgId9f5q-160" value="&lt;font style=&quot;font-size: 18px;&quot;&gt;Make payment&lt;/font&gt;" style="text;html=1;align=center;verticalAlign=middle;whiteSpace=wrap;rounded=0;" parent="lIMlZDT6CVLQSgId9f5q-146" vertex="1">
          <mxGeometry x="140" y="640" width="100" height="30" as="geometry" />
        </mxCell>
        <mxCell id="lIMlZDT6CVLQSgId9f5q-155" value="&lt;font style=&quot;font-size: 18px;&quot;&gt;View Orders&lt;/font&gt;" style="ellipse;whiteSpace=wrap;html=1;" parent="lIMlZDT6CVLQSgId9f5q-146" vertex="1">
          <mxGeometry x="30" y="740" width="320" height="80" as="geometry" />
        </mxCell>
        <mxCell id="Gl-8x7QTO9yD9IyzZU1p-1" value="" style="ellipse;whiteSpace=wrap;html=1;" parent="lIMlZDT6CVLQSgId9f5q-146" vertex="1">
          <mxGeometry x="430" y="10" width="330" height="80" as="geometry" />
        </mxCell>
        <mxCell id="Gl-8x7QTO9yD9IyzZU1p-2" value="&lt;font style=&quot;font-size: 18px;&quot;&gt;Add new user&lt;/font&gt;" style="text;html=1;align=center;verticalAlign=middle;whiteSpace=wrap;rounded=0;" parent="lIMlZDT6CVLQSgId9f5q-146" vertex="1">
          <mxGeometry x="540" y="40" width="95" height="30" as="geometry" />
        </mxCell>
        <mxCell id="Gl-8x7QTO9yD9IyzZU1p-4" value="&lt;font style=&quot;font-size: 18px;&quot;&gt;&amp;lt;&amp;lt;includes&amp;gt;&amp;gt;&lt;/font&gt;" style="html=1;verticalAlign=bottom;labelBackgroundColor=none;endArrow=open;endFill=0;dashed=1;rounded=0;entryX=0.377;entryY=0.993;entryDx=0;entryDy=0;entryPerimeter=0;" parent="lIMlZDT6CVLQSgId9f5q-146" target="Gl-8x7QTO9yD9IyzZU1p-1" edge="1">
          <mxGeometry x="-0.3675" y="14" width="160" relative="1" as="geometry">
            <mxPoint x="350" y="120" as="sourcePoint" />
            <mxPoint x="500" y="120" as="targetPoint" />
            <mxPoint as="offset" />
          </mxGeometry>
        </mxCell>
        <mxCell id="Gl-8x7QTO9yD9IyzZU1p-5" value="Text" style="text;html=1;align=center;verticalAlign=middle;whiteSpace=wrap;rounded=0;" parent="lIMlZDT6CVLQSgId9f5q-146" vertex="1">
          <mxGeometry x="540" y="170" width="60" height="30" as="geometry" />
        </mxCell>
        <mxCell id="Gl-8x7QTO9yD9IyzZU1p-6" value="" style="ellipse;whiteSpace=wrap;html=1;" parent="lIMlZDT6CVLQSgId9f5q-146" vertex="1">
          <mxGeometry x="450" y="170" width="330" height="80" as="geometry" />
        </mxCell>
        <mxCell id="Gl-8x7QTO9yD9IyzZU1p-7" value="&lt;font style=&quot;font-size: 18px;&quot;&gt;Verify log in&amp;nbsp;&lt;/font&gt;" style="text;html=1;align=center;verticalAlign=middle;whiteSpace=wrap;rounded=0;" parent="lIMlZDT6CVLQSgId9f5q-146" vertex="1">
          <mxGeometry x="530" y="175" width="100" height="30" as="geometry" />
        </mxCell>
        <mxCell id="Gl-8x7QTO9yD9IyzZU1p-8" value="&lt;font style=&quot;font-size: 18px;&quot;&gt;&amp;lt;&amp;lt;in&lt;/font&gt;&lt;font style=&quot;font-size: 14px;&quot;&gt;clude&amp;gt;&amp;gt;&lt;/font&gt;" style="html=1;verticalAlign=bottom;labelBackgroundColor=none;endArrow=open;endFill=0;dashed=1;rounded=0;" parent="lIMlZDT6CVLQSgId9f5q-146" edge="1">
          <mxGeometry width="160" relative="1" as="geometry">
            <mxPoint x="310" y="230" as="sourcePoint" />
            <mxPoint x="470" y="230" as="targetPoint" />
          </mxGeometry>
        </mxCell>
        <mxCell id="Gl-8x7QTO9yD9IyzZU1p-9" value="" style="ellipse;whiteSpace=wrap;html=1;" parent="lIMlZDT6CVLQSgId9f5q-146" vertex="1">
          <mxGeometry x="470" y="260" width="290" height="80" as="geometry" />
        </mxCell>
        <mxCell id="Gl-8x7QTO9yD9IyzZU1p-12" value="&lt;font style=&quot;font-size: 18px;&quot;&gt;&amp;lt;&amp;lt;extends&amp;gt;&amp;gt;&lt;/font&gt;" style="html=1;verticalAlign=bottom;labelBackgroundColor=none;endArrow=open;endFill=0;dashed=1;rounded=0;" parent="lIMlZDT6CVLQSgId9f5q-146" target="lIMlZDT6CVLQSgId9f5q-150" edge="1">
          <mxGeometry x="0.1083" y="24" width="160" relative="1" as="geometry">
            <mxPoint x="470" y="300" as="sourcePoint" />
            <mxPoint x="630" y="300" as="targetPoint" />
            <mxPoint as="offset" />
          </mxGeometry>
        </mxCell>
        <mxCell id="Gl-8x7QTO9yD9IyzZU1p-13" value="&lt;font style=&quot;font-size: 18px;&quot;&gt;deny log in&amp;nbsp;&lt;/font&gt;" style="text;html=1;align=center;verticalAlign=middle;whiteSpace=wrap;rounded=0;" parent="lIMlZDT6CVLQSgId9f5q-146" vertex="1">
          <mxGeometry x="575" y="285" width="85" height="30" as="geometry" />
        </mxCell>
        <mxCell id="Gl-8x7QTO9yD9IyzZU1p-14" value="&lt;font style=&quot;font-size: 18px;&quot;&gt;&amp;lt;&amp;lt;include&amp;gt;&amp;gt;&lt;/font&gt;" style="html=1;verticalAlign=bottom;labelBackgroundColor=none;endArrow=open;endFill=0;dashed=1;rounded=0;entryX=1;entryY=0;entryDx=0;entryDy=0;" parent="lIMlZDT6CVLQSgId9f5q-146" target="lIMlZDT6CVLQSgId9f5q-150" edge="1">
          <mxGeometry width="160" relative="1" as="geometry">
            <mxPoint x="620" y="90" as="sourcePoint" />
            <mxPoint x="770" y="100" as="targetPoint" />
          </mxGeometry>
        </mxCell>
        <mxCell id="Gl-8x7QTO9yD9IyzZU1p-15" value="" style="ellipse;whiteSpace=wrap;html=1;" parent="lIMlZDT6CVLQSgId9f5q-146" vertex="1">
          <mxGeometry x="430" y="590" width="180" height="80" as="geometry" />
        </mxCell>
        <mxCell id="Gl-8x7QTO9yD9IyzZU1p-16" value="" style="ellipse;whiteSpace=wrap;html=1;" parent="lIMlZDT6CVLQSgId9f5q-146" vertex="1">
          <mxGeometry x="440" y="685" width="170" height="80" as="geometry" />
        </mxCell>
        <mxCell id="Gl-8x7QTO9yD9IyzZU1p-17" value="&lt;font style=&quot;font-size: 18px;&quot;&gt;Verify payment&amp;nbsp;&lt;/font&gt;" style="text;html=1;align=center;verticalAlign=middle;whiteSpace=wrap;rounded=0;" parent="lIMlZDT6CVLQSgId9f5q-146" vertex="1">
          <mxGeometry x="500" y="615" width="60" height="30" as="geometry" />
        </mxCell>
        <mxCell id="Gl-8x7QTO9yD9IyzZU1p-18" value="&lt;font style=&quot;font-size: 18px;&quot;&gt;&lt;font style=&quot;&quot;&gt;insuficient&lt;/font&gt; funds&lt;/font&gt;" style="text;html=1;align=center;verticalAlign=middle;whiteSpace=wrap;rounded=0;" parent="lIMlZDT6CVLQSgId9f5q-146" vertex="1">
          <mxGeometry x="500" y="719" width="60" height="30" as="geometry" />
        </mxCell>
        <mxCell id="Gl-8x7QTO9yD9IyzZU1p-20" value="&lt;font style=&quot;font-size: 14px;&quot;&gt;&amp;lt;&amp;lt;include&amp;gt;&amp;gt;&lt;/font&gt;" style="html=1;verticalAlign=bottom;labelBackgroundColor=none;endArrow=open;endFill=0;dashed=1;rounded=0;entryX=0.004;entryY=0.352;entryDx=0;entryDy=0;entryPerimeter=0;" parent="lIMlZDT6CVLQSgId9f5q-146" target="Gl-8x7QTO9yD9IyzZU1p-15" edge="1">
          <mxGeometry width="160" relative="1" as="geometry">
            <mxPoint x="330" y="640" as="sourcePoint" />
            <mxPoint x="490" y="640" as="targetPoint" />
          </mxGeometry>
        </mxCell>
        <mxCell id="Gl-8x7QTO9yD9IyzZU1p-21" value="&lt;font style=&quot;font-size: 14px;&quot;&gt;&amp;lt;&amp;lt;&amp;gt;Extends&amp;gt;&lt;/font&gt;" style="html=1;verticalAlign=bottom;labelBackgroundColor=none;endArrow=open;endFill=0;dashed=1;rounded=0;" parent="lIMlZDT6CVLQSgId9f5q-146" target="lIMlZDT6CVLQSgId9f5q-157" edge="1">
          <mxGeometry width="160" relative="1" as="geometry">
            <mxPoint x="450" y="730" as="sourcePoint" />
            <mxPoint x="610" y="730" as="targetPoint" />
          </mxGeometry>
        </mxCell>
        <mxCell id="Gl-8x7QTO9yD9IyzZU1p-22" value="&lt;font style=&quot;font-size: 18px;&quot;&gt;&amp;nbsp;update&lt;/font&gt;" style="ellipse;whiteSpace=wrap;html=1;" parent="lIMlZDT6CVLQSgId9f5q-146" vertex="1">
          <mxGeometry x="465" y="460" width="175" height="80" as="geometry" />
        </mxCell>
        <mxCell id="Gl-8x7QTO9yD9IyzZU1p-24" value="" style="endArrow=none;html=1;rounded=0;" parent="lIMlZDT6CVLQSgId9f5q-146" edge="1">
          <mxGeometry width="50" height="50" relative="1" as="geometry">
            <mxPoint x="610" y="630" as="sourcePoint" />
            <mxPoint x="1130" y="760" as="targetPoint" />
          </mxGeometry>
        </mxCell>
        <mxCell id="Gl-8x7QTO9yD9IyzZU1p-26" value="" style="endArrow=none;html=1;rounded=0;" parent="lIMlZDT6CVLQSgId9f5q-146" edge="1">
          <mxGeometry width="50" height="50" relative="1" as="geometry">
            <mxPoint x="610" y="730" as="sourcePoint" />
            <mxPoint x="1130" y="760" as="targetPoint" />
          </mxGeometry>
        </mxCell>
        <mxCell id="Gl-8x7QTO9yD9IyzZU1p-28" value="&lt;font style=&quot;font-size: 18px;&quot;&gt;&amp;lt;&amp;lt;include&amp;gt;&amp;gt;&lt;/font&gt;" style="html=1;verticalAlign=bottom;labelBackgroundColor=none;endArrow=open;endFill=0;dashed=1;rounded=0;entryX=0;entryY=0.5;entryDx=0;entryDy=0;" parent="lIMlZDT6CVLQSgId9f5q-146" target="Gl-8x7QTO9yD9IyzZU1p-22" edge="1">
          <mxGeometry width="160" relative="1" as="geometry">
            <mxPoint x="310" y="520" as="sourcePoint" />
            <mxPoint x="470" y="520" as="targetPoint" />
          </mxGeometry>
        </mxCell>
        <mxCell id="Gl-8x7QTO9yD9IyzZU1p-32" value="" style="endArrow=none;html=1;rounded=0;entryX=0;entryY=0.3333333333333333;entryDx=0;entryDy=0;entryPerimeter=0;" parent="lIMlZDT6CVLQSgId9f5q-146" target="lIMlZDT6CVLQSgId9f5q-177" edge="1">
          <mxGeometry width="50" height="50" relative="1" as="geometry">
            <mxPoint x="640" y="510" as="sourcePoint" />
            <mxPoint x="690" y="460" as="targetPoint" />
          </mxGeometry>
        </mxCell>
        <mxCell id="lIMlZDT6CVLQSgId9f5q-161" value="&lt;font style=&quot;font-size: 18px;&quot;&gt;User&lt;/font&gt;" style="shape=umlActor;verticalLabelPosition=bottom;verticalAlign=top;html=1;outlineConnect=0;" parent="1" vertex="1">
          <mxGeometry x="-32" y="2340" width="30" height="60" as="geometry" />
        </mxCell>
        <mxCell id="lIMlZDT6CVLQSgId9f5q-162" value="" style="endArrow=classic;html=1;rounded=0;entryX=0;entryY=0.5;entryDx=0;entryDy=0;" parent="1" target="lIMlZDT6CVLQSgId9f5q-148" edge="1">
          <mxGeometry width="50" height="50" relative="1" as="geometry">
            <mxPoint y="2360" as="sourcePoint" />
            <mxPoint x="50" y="2310" as="targetPoint" />
          </mxGeometry>
        </mxCell>
        <mxCell id="lIMlZDT6CVLQSgId9f5q-163" value="" style="endArrow=classic;html=1;rounded=0;entryX=0;entryY=0.5;entryDx=0;entryDy=0;" parent="1" target="lIMlZDT6CVLQSgId9f5q-150" edge="1">
          <mxGeometry width="50" height="50" relative="1" as="geometry">
            <mxPoint y="2360" as="sourcePoint" />
            <mxPoint x="50" y="2310" as="targetPoint" />
          </mxGeometry>
        </mxCell>
        <mxCell id="lIMlZDT6CVLQSgId9f5q-164" value="" style="endArrow=classic;html=1;rounded=0;entryX=0;entryY=0.5;entryDx=0;entryDy=0;" parent="1" target="lIMlZDT6CVLQSgId9f5q-152" edge="1">
          <mxGeometry width="50" height="50" relative="1" as="geometry">
            <mxPoint y="2360" as="sourcePoint" />
            <mxPoint x="50" y="2310" as="targetPoint" />
          </mxGeometry>
        </mxCell>
        <mxCell id="lIMlZDT6CVLQSgId9f5q-165" value="" style="endArrow=classic;html=1;rounded=0;entryX=0;entryY=0.5;entryDx=0;entryDy=0;" parent="1" target="lIMlZDT6CVLQSgId9f5q-154" edge="1">
          <mxGeometry width="50" height="50" relative="1" as="geometry">
            <mxPoint y="2360" as="sourcePoint" />
            <mxPoint x="50" y="2310" as="targetPoint" />
          </mxGeometry>
        </mxCell>
        <mxCell id="lIMlZDT6CVLQSgId9f5q-166" value="" style="endArrow=classic;html=1;rounded=0;entryX=0;entryY=0.5;entryDx=0;entryDy=0;" parent="1" target="lIMlZDT6CVLQSgId9f5q-156" edge="1">
          <mxGeometry width="50" height="50" relative="1" as="geometry">
            <mxPoint y="2360" as="sourcePoint" />
            <mxPoint x="50" y="2310" as="targetPoint" />
          </mxGeometry>
        </mxCell>
        <mxCell id="lIMlZDT6CVLQSgId9f5q-167" value="" style="endArrow=classic;html=1;rounded=0;entryX=0;entryY=0.5;entryDx=0;entryDy=0;" parent="1" target="lIMlZDT6CVLQSgId9f5q-157" edge="1">
          <mxGeometry width="50" height="50" relative="1" as="geometry">
            <mxPoint y="2360" as="sourcePoint" />
            <mxPoint x="50" y="2310" as="targetPoint" />
          </mxGeometry>
        </mxCell>
        <mxCell id="lIMlZDT6CVLQSgId9f5q-168" value="" style="endArrow=classic;html=1;rounded=0;entryX=0;entryY=0.5;entryDx=0;entryDy=0;" parent="1" target="lIMlZDT6CVLQSgId9f5q-155" edge="1">
          <mxGeometry width="50" height="50" relative="1" as="geometry">
            <mxPoint y="2360" as="sourcePoint" />
            <mxPoint x="50" y="2310" as="targetPoint" />
          </mxGeometry>
        </mxCell>
        <mxCell id="lIMlZDT6CVLQSgId9f5q-169" value="&lt;font style=&quot;font-size: 18px;&quot;&gt;Registers&lt;/font&gt;" style="text;html=1;align=center;verticalAlign=middle;whiteSpace=wrap;rounded=0;rotation=-45;" parent="1" vertex="1">
          <mxGeometry x="130" y="2200" width="60" height="30" as="geometry" />
        </mxCell>
        <mxCell id="lIMlZDT6CVLQSgId9f5q-170" value="&lt;font style=&quot;font-size: 18px;&quot;&gt;Logs IN&lt;/font&gt;" style="text;html=1;align=center;verticalAlign=middle;whiteSpace=wrap;rounded=0;rotation=-30;" parent="1" vertex="1">
          <mxGeometry x="188.66" y="2215" width="80" height="30" as="geometry" />
        </mxCell>
        <mxCell id="lIMlZDT6CVLQSgId9f5q-171" value="&lt;font style=&quot;font-size: 18px;&quot;&gt;Browses Products&lt;/font&gt;" style="text;html=1;align=center;verticalAlign=middle;whiteSpace=wrap;rounded=0;rotation=-10;" parent="1" vertex="1">
          <mxGeometry x="170.15" y="2273.24" width="159.7" height="30" as="geometry" />
        </mxCell>
        <mxCell id="lIMlZDT6CVLQSgId9f5q-173" value="&lt;font style=&quot;font-size: 18px;&quot;&gt;Add product to cart&lt;/font&gt;" style="text;html=1;align=center;verticalAlign=middle;whiteSpace=wrap;rounded=0;rotation=0;" parent="1" vertex="1">
          <mxGeometry x="140" y="2355" width="170" height="30" as="geometry" />
        </mxCell>
        <mxCell id="lIMlZDT6CVLQSgId9f5q-174" value="&lt;font style=&quot;font-size: 18px;&quot;&gt;Proceed&amp;nbsp; to check out&lt;/font&gt;" style="text;html=1;align=center;verticalAlign=middle;whiteSpace=wrap;rounded=0;rotation=15;" parent="1" vertex="1">
          <mxGeometry x="130.85" y="2416.16" width="199.66" height="30" as="geometry" />
        </mxCell>
        <mxCell id="lIMlZDT6CVLQSgId9f5q-175" value="&lt;font style=&quot;font-size: 18px;&quot;&gt;Makes Payment&lt;/font&gt;" style="text;html=1;align=center;verticalAlign=middle;whiteSpace=wrap;rounded=0;rotation=35;" parent="1" vertex="1">
          <mxGeometry x="143.13" y="2482.3" width="154.57" height="30" as="geometry" />
        </mxCell>
        <mxCell id="lIMlZDT6CVLQSgId9f5q-176" value="&lt;font style=&quot;font-size: 18px;&quot;&gt;View Order history&lt;/font&gt;" style="text;html=1;align=center;verticalAlign=middle;whiteSpace=wrap;rounded=0;rotation=45;" parent="1" vertex="1">
          <mxGeometry x="165.52" y="2573.43" width="167.52" height="30" as="geometry" />
        </mxCell>
        <mxCell id="lIMlZDT6CVLQSgId9f5q-177" value="&lt;font style=&quot;font-size: 18px;&quot;&gt;Inventory Management System&lt;/font&gt;" style="shape=umlActor;verticalLabelPosition=bottom;verticalAlign=top;html=1;outlineConnect=0;" parent="1" vertex="1">
          <mxGeometry x="1520" y="2522.21" width="30" height="60" as="geometry" />
        </mxCell>
        <mxCell id="lIMlZDT6CVLQSgId9f5q-178" value="&lt;font style=&quot;font-size: 18px;&quot;&gt;Payment Gateway&lt;/font&gt;" style="shape=umlActor;verticalLabelPosition=bottom;verticalAlign=top;html=1;outlineConnect=0;" parent="1" vertex="1">
          <mxGeometry x="1490" y="2718" width="30" height="65" as="geometry" />
        </mxCell>
        <mxCell id="lIMlZDT6CVLQSgId9f5q-190" value="&lt;font style=&quot;font-size: 18px;&quot;&gt;&lt;b style=&quot;&quot;&gt;Use case diagram E-commerce store&lt;/b&gt;&lt;/font&gt;" style="text;html=1;align=center;verticalAlign=middle;whiteSpace=wrap;rounded=0;" parent="1" vertex="1">
          <mxGeometry x="340" y="1900" width="390" height="30" as="geometry" />
        </mxCell>
        <mxCell id="lIMlZDT6CVLQSgId9f5q-191" value="&lt;font style=&quot;font-size: 14px;&quot;&gt;Update inventory&lt;/font&gt;" style="text;html=1;align=center;verticalAlign=middle;whiteSpace=wrap;rounded=0;rotation=0;" parent="1" vertex="1">
          <mxGeometry x="1240" y="2482.3" width="140" height="30" as="geometry" />
        </mxCell>
        <mxCell id="lIMlZDT6CVLQSgId9f5q-192" value="&lt;font style=&quot;font-size: 18px;&quot;&gt;Processes payment&lt;/font&gt;" style="text;html=1;align=center;verticalAlign=middle;whiteSpace=wrap;rounded=0;rotation=15;" parent="1" vertex="1">
          <mxGeometry x="1193" y="2680" width="165" height="30" as="geometry" />
        </mxCell>
        <mxCell id="QqdPBUXhQjPoTKRg3ORw-12" value="Catergory" style="swimlane;fontStyle=0;childLayout=stackLayout;horizontal=1;startSize=26;fillColor=none;horizontalStack=0;resizeParent=1;resizeParentMax=0;resizeLast=0;collapsible=1;marginBottom=0;whiteSpace=wrap;html=1;" parent="1" vertex="1">
          <mxGeometry x="975" y="180" width="230" height="104" as="geometry" />
        </mxCell>
        <mxCell id="QqdPBUXhQjPoTKRg3ORw-13" value="Catergory _id {primary key}" style="text;strokeColor=none;fillColor=none;align=left;verticalAlign=top;spacingLeft=4;spacingRight=4;overflow=hidden;rotatable=0;points=[[0,0.5],[1,0.5]];portConstraint=eastwest;whiteSpace=wrap;html=1;" parent="QqdPBUXhQjPoTKRg3ORw-12" vertex="1">
          <mxGeometry y="26" width="230" height="26" as="geometry" />
        </mxCell>
        <mxCell id="QqdPBUXhQjPoTKRg3ORw-14" value="Category_name:Varchar(100)" style="text;strokeColor=none;fillColor=none;align=left;verticalAlign=top;spacingLeft=4;spacingRight=4;overflow=hidden;rotatable=0;points=[[0,0.5],[1,0.5]];portConstraint=eastwest;whiteSpace=wrap;html=1;" parent="QqdPBUXhQjPoTKRg3ORw-12" vertex="1">
          <mxGeometry y="52" width="230" height="26" as="geometry" />
        </mxCell>
        <mxCell id="QqdPBUXhQjPoTKRg3ORw-15" value="Description :TEXT" style="text;strokeColor=none;fillColor=none;align=left;verticalAlign=top;spacingLeft=4;spacingRight=4;overflow=hidden;rotatable=0;points=[[0,0.5],[1,0.5]];portConstraint=eastwest;whiteSpace=wrap;html=1;" parent="QqdPBUXhQjPoTKRg3ORw-12" vertex="1">
          <mxGeometry y="78" width="230" height="26" as="geometry" />
        </mxCell>
        <mxCell id="QqdPBUXhQjPoTKRg3ORw-19" value="Admin" style="swimlane;fontStyle=0;childLayout=stackLayout;horizontal=1;startSize=26;fillColor=none;horizontalStack=0;resizeParent=1;resizeParentMax=0;resizeLast=0;collapsible=1;marginBottom=0;whiteSpace=wrap;html=1;" parent="1" vertex="1">
          <mxGeometry x="474" y="-180" width="190" height="134" as="geometry" />
        </mxCell>
        <mxCell id="QqdPBUXhQjPoTKRg3ORw-20" value="&lt;u&gt;Seller_id: INT {PRIMARY KEY}&lt;/u&gt;" style="text;strokeColor=none;fillColor=none;align=left;verticalAlign=top;spacingLeft=4;spacingRight=4;overflow=hidden;rotatable=0;points=[[0,0.5],[1,0.5]];portConstraint=eastwest;whiteSpace=wrap;html=1;" parent="QqdPBUXhQjPoTKRg3ORw-19" vertex="1">
          <mxGeometry y="26" width="190" height="26" as="geometry" />
        </mxCell>
        <mxCell id="QqdPBUXhQjPoTKRg3ORw-21" value="Name:VARCHAR(100)" style="text;strokeColor=none;fillColor=none;align=left;verticalAlign=top;spacingLeft=4;spacingRight=4;overflow=hidden;rotatable=0;points=[[0,0.5],[1,0.5]];portConstraint=eastwest;whiteSpace=wrap;html=1;" parent="QqdPBUXhQjPoTKRg3ORw-19" vertex="1">
          <mxGeometry y="52" width="190" height="26" as="geometry" />
        </mxCell>
        <mxCell id="QqdPBUXhQjPoTKRg3ORw-23" value="Total_sales:DECIMAL(10.2)" style="text;html=1;align=left;verticalAlign=middle;whiteSpace=wrap;rounded=0;" parent="QqdPBUXhQjPoTKRg3ORw-19" vertex="1">
          <mxGeometry y="78" width="190" height="30" as="geometry" />
        </mxCell>
        <mxCell id="QqdPBUXhQjPoTKRg3ORw-22" value="Phone:INT(20)" style="text;strokeColor=none;fillColor=none;align=left;verticalAlign=top;spacingLeft=4;spacingRight=4;overflow=hidden;rotatable=0;points=[[0,0.5],[1,0.5]];portConstraint=eastwest;whiteSpace=wrap;html=1;" parent="QqdPBUXhQjPoTKRg3ORw-19" vertex="1">
          <mxGeometry y="108" width="190" height="26" as="geometry" />
        </mxCell>
        <mxCell id="QqdPBUXhQjPoTKRg3ORw-33" value="&lt;font style=&quot;font-size: 14px;&quot;&gt;PK&lt;/font&gt;" style="text;html=1;align=center;verticalAlign=middle;whiteSpace=wrap;rounded=0;" parent="1" vertex="1">
          <mxGeometry x="-120" y="191" width="60" height="30" as="geometry" />
        </mxCell>
        <mxCell id="QqdPBUXhQjPoTKRg3ORw-38" value="" style="endArrow=none;html=1;rounded=0;exitX=0.5;exitY=0;exitDx=0;exitDy=0;strokeColor=#000000;" parent="1" source="lIMlZDT6CVLQSgId9f5q-5" target="lIMlZDT6CVLQSgId9f5q-92" edge="1">
          <mxGeometry width="50" height="50" relative="1" as="geometry">
            <mxPoint x="35" y="1290" as="sourcePoint" />
            <mxPoint x="30" y="1100" as="targetPoint" />
          </mxGeometry>
        </mxCell>
        <mxCell id="lIMlZDT6CVLQSgId9f5q-92" value="&lt;span style=&quot;font-size: 14px;&quot;&gt;pays&lt;/span&gt;" style="shape=rhombus;perimeter=rhombusPerimeter;whiteSpace=wrap;html=1;align=center;" parent="1" vertex="1">
          <mxGeometry x="-25" y="1170" width="120" height="60" as="geometry" />
        </mxCell>
        <mxCell id="uQDXOYjdWM2bI9ehBZ_c-10" value="inventory&amp;nbsp;" style="swimlane;fontStyle=0;childLayout=stackLayout;horizontal=1;startSize=26;fillColor=none;horizontalStack=0;resizeParent=1;resizeParentMax=0;resizeLast=0;collapsible=1;marginBottom=0;whiteSpace=wrap;html=1;" parent="1" vertex="1">
          <mxGeometry x="417" y="232" width="290" height="251" as="geometry" />
        </mxCell>
        <mxCell id="tOMD2bxdD2lX4mAQ1nXo-25" value="Product_id INT" style="text;html=1;align=center;verticalAlign=middle;whiteSpace=wrap;rounded=0;" vertex="1" parent="uQDXOYjdWM2bI9ehBZ_c-10">
          <mxGeometry y="26" width="290" height="30" as="geometry" />
        </mxCell>
        <mxCell id="uQDXOYjdWM2bI9ehBZ_c-12" value="Catergory_id:INT" style="text;html=1;align=center;verticalAlign=middle;whiteSpace=wrap;rounded=0;" parent="uQDXOYjdWM2bI9ehBZ_c-10" vertex="1">
          <mxGeometry y="56" width="290" height="30" as="geometry" />
        </mxCell>
        <mxCell id="uQDXOYjdWM2bI9ehBZ_c-14" value="Product_name:VARCHAR(225)" style="text;html=1;align=center;verticalAlign=middle;whiteSpace=wrap;rounded=0;" parent="uQDXOYjdWM2bI9ehBZ_c-10" vertex="1">
          <mxGeometry y="86" width="290" height="30" as="geometry" />
        </mxCell>
        <mxCell id="tOMD2bxdD2lX4mAQ1nXo-30" value="Discription&amp;nbsp; TEXT" style="text;html=1;align=center;verticalAlign=middle;whiteSpace=wrap;rounded=0;" vertex="1" parent="uQDXOYjdWM2bI9ehBZ_c-10">
          <mxGeometry y="116" width="290" height="30" as="geometry" />
        </mxCell>
        <mxCell id="tOMD2bxdD2lX4mAQ1nXo-31" value="Price DECIMAL(10.2)" style="text;html=1;align=center;verticalAlign=middle;whiteSpace=wrap;rounded=0;" vertex="1" parent="uQDXOYjdWM2bI9ehBZ_c-10">
          <mxGeometry y="146" width="290" height="30" as="geometry" />
        </mxCell>
        <mxCell id="tOMD2bxdD2lX4mAQ1nXo-32" value="Quantity INT" style="text;html=1;align=center;verticalAlign=middle;whiteSpace=wrap;rounded=0;" vertex="1" parent="uQDXOYjdWM2bI9ehBZ_c-10">
          <mxGeometry y="176" width="290" height="30" as="geometry" />
        </mxCell>
        <mxCell id="tOMD2bxdD2lX4mAQ1nXo-28" value="&lt;div style=&quot;text-align: left;&quot;&gt;&lt;br&gt;&lt;/div&gt;" style="text;html=1;align=center;verticalAlign=middle;whiteSpace=wrap;rounded=0;" vertex="1" parent="uQDXOYjdWM2bI9ehBZ_c-10">
          <mxGeometry y="206" width="290" height="45" as="geometry" />
        </mxCell>
        <mxCell id="uQDXOYjdWM2bI9ehBZ_c-18" value="&lt;font style=&quot;font-size: 18px;&quot;&gt;1&lt;/font&gt;" style="text;html=1;align=center;verticalAlign=middle;whiteSpace=wrap;rounded=0;" parent="1" vertex="1">
          <mxGeometry x="1070" y="284" width="60" height="30" as="geometry" />
        </mxCell>
        <mxCell id="uQDXOYjdWM2bI9ehBZ_c-19" value="" style="rhombus;whiteSpace=wrap;html=1;" parent="1" vertex="1">
          <mxGeometry x="860" y="354" width="80" height="80" as="geometry" />
        </mxCell>
        <mxCell id="uQDXOYjdWM2bI9ehBZ_c-20" value="" style="endArrow=none;html=1;rounded=0;entryX=0;entryY=0.75;entryDx=0;entryDy=0;strokeColor=#000000;" parent="1" source="uQDXOYjdWM2bI9ehBZ_c-19" target="uQDXOYjdWM2bI9ehBZ_c-23" edge="1">
          <mxGeometry width="50" height="50" relative="1" as="geometry">
            <mxPoint x="789.2893218813452" y="444" as="sourcePoint" />
            <mxPoint x="789.2893218813452" y="394" as="targetPoint" />
          </mxGeometry>
        </mxCell>
        <mxCell id="uQDXOYjdWM2bI9ehBZ_c-21" value="" style="endArrow=none;html=1;rounded=0;entryX=0.457;entryY=1.044;entryDx=0;entryDy=0;entryPerimeter=0;exitX=1;exitY=0.5;exitDx=0;exitDy=0;" parent="1" source="uQDXOYjdWM2bI9ehBZ_c-19" target="QqdPBUXhQjPoTKRg3ORw-15" edge="1">
          <mxGeometry width="50" height="50" relative="1" as="geometry">
            <mxPoint x="940" y="390" as="sourcePoint" />
            <mxPoint x="990" y="340" as="targetPoint" />
            <Array as="points">
              <mxPoint x="1080" y="394" />
            </Array>
          </mxGeometry>
        </mxCell>
        <mxCell id="uQDXOYjdWM2bI9ehBZ_c-23" value="&lt;font style=&quot;font-size: 24px;&quot;&gt;*&lt;/font&gt;" style="text;html=1;align=center;verticalAlign=middle;whiteSpace=wrap;rounded=0;" parent="1" vertex="1">
          <mxGeometry x="706" y="370" width="60" height="30" as="geometry" />
        </mxCell>
        <mxCell id="uQDXOYjdWM2bI9ehBZ_c-24" value="" style="rhombus;whiteSpace=wrap;html=1;" parent="1" vertex="1">
          <mxGeometry x="530" y="60" width="80" height="80" as="geometry" />
        </mxCell>
        <mxCell id="uQDXOYjdWM2bI9ehBZ_c-25" value="" style="endArrow=none;html=1;rounded=0;entryX=0.495;entryY=0.966;entryDx=0;entryDy=0;entryPerimeter=0;" parent="1" target="QqdPBUXhQjPoTKRg3ORw-22" edge="1">
          <mxGeometry width="50" height="50" relative="1" as="geometry">
            <mxPoint x="570" y="60" as="sourcePoint" />
            <mxPoint x="570" y="-40" as="targetPoint" />
          </mxGeometry>
        </mxCell>
        <mxCell id="uQDXOYjdWM2bI9ehBZ_c-26" value="" style="endArrow=none;html=1;rounded=0;strokeColor=#000000;" parent="1" edge="1">
          <mxGeometry width="50" height="50" relative="1" as="geometry">
            <mxPoint x="570" y="230" as="sourcePoint" />
            <mxPoint x="570" y="140" as="targetPoint" />
          </mxGeometry>
        </mxCell>
        <mxCell id="uQDXOYjdWM2bI9ehBZ_c-27" value="&lt;font style=&quot;font-size: 24px;&quot;&gt;*&lt;/font&gt;" style="text;html=1;align=center;verticalAlign=middle;whiteSpace=wrap;rounded=0;" parent="1" vertex="1">
          <mxGeometry x="525" y="-46" width="60" height="30" as="geometry" />
        </mxCell>
        <mxCell id="uQDXOYjdWM2bI9ehBZ_c-28" value="&lt;font style=&quot;font-size: 24px;&quot;&gt;*&lt;/font&gt;" style="text;html=1;align=center;verticalAlign=middle;whiteSpace=wrap;rounded=0;" parent="1" vertex="1">
          <mxGeometry x="525" y="210" width="60" height="30" as="geometry" />
        </mxCell>
        <mxCell id="uQDXOYjdWM2bI9ehBZ_c-30" value="" style="endArrow=none;html=1;rounded=0;exitX=0.5;exitY=1;exitDx=0;exitDy=0;" parent="1" source="uQDXOYjdWM2bI9ehBZ_c-31" edge="1">
          <mxGeometry width="50" height="50" relative="1" as="geometry">
            <mxPoint x="-160" y="1490" as="sourcePoint" />
            <mxPoint x="-120" y="1440" as="targetPoint" />
            <Array as="points">
              <mxPoint x="-190" y="1440" />
            </Array>
          </mxGeometry>
        </mxCell>
        <mxCell id="uQDXOYjdWM2bI9ehBZ_c-31" value="" style="rhombus;whiteSpace=wrap;html=1;" parent="1" vertex="1">
          <mxGeometry x="-230" y="1120" width="80" height="80" as="geometry" />
        </mxCell>
        <mxCell id="uQDXOYjdWM2bI9ehBZ_c-32" value="" style="endArrow=none;html=1;rounded=0;exitX=0.5;exitY=0;exitDx=0;exitDy=0;strokeColor=#000000;" parent="1" source="uQDXOYjdWM2bI9ehBZ_c-31" edge="1">
          <mxGeometry width="50" height="50" relative="1" as="geometry">
            <mxPoint x="-200" y="1130" as="sourcePoint" />
            <mxPoint x="-76" y="265" as="targetPoint" />
            <Array as="points">
              <mxPoint x="-190" y="520" />
              <mxPoint x="-72" y="520" />
            </Array>
          </mxGeometry>
        </mxCell>
        <mxCell id="uQDXOYjdWM2bI9ehBZ_c-33" value="&lt;font style=&quot;font-size: 24px;&quot;&gt;1&lt;/font&gt;" style="text;html=1;align=center;verticalAlign=middle;whiteSpace=wrap;rounded=0;" parent="1" vertex="1">
          <mxGeometry x="-120" y="280" width="60" height="30" as="geometry" />
        </mxCell>
        <mxCell id="uQDXOYjdWM2bI9ehBZ_c-35" value="&lt;font style=&quot;font-size: 24px;&quot;&gt;*&lt;/font&gt;" style="text;html=1;align=center;verticalAlign=middle;whiteSpace=wrap;rounded=0;" parent="1" vertex="1">
          <mxGeometry x="-170" y="1410" width="60" height="30" as="geometry" />
        </mxCell>
        <mxCell id="uQDXOYjdWM2bI9ehBZ_c-36" value="&lt;font style=&quot;font-size: 24px;&quot;&gt;*&lt;/font&gt;" style="text;html=1;align=center;verticalAlign=middle;whiteSpace=wrap;rounded=0;" parent="1" vertex="1">
          <mxGeometry x="540" y="490" width="60" height="30" as="geometry" />
        </mxCell>
        <mxCell id="uQDXOYjdWM2bI9ehBZ_c-37" value="&lt;font style=&quot;font-size: 18px;&quot;&gt;1&lt;/font&gt;" style="text;html=1;align=center;verticalAlign=middle;whiteSpace=wrap;rounded=0;" parent="1" vertex="1">
          <mxGeometry x="415" y="730" width="60" height="30" as="geometry" />
        </mxCell>
        <mxCell id="Gl-8x7QTO9yD9IyzZU1p-27" value="&lt;font style=&quot;font-size: 18px;&quot;&gt;decline&lt;/font&gt;" style="text;html=1;align=center;verticalAlign=middle;whiteSpace=wrap;rounded=0;" parent="1" vertex="1">
          <mxGeometry x="1215" y="2736" width="60" height="30" as="geometry" />
        </mxCell>
        <mxCell id="Gl-8x7QTO9yD9IyzZU1p-33" value="Admin" style="shape=umlActor;verticalLabelPosition=bottom;verticalAlign=top;html=1;outlineConnect=0;" parent="1" vertex="1">
          <mxGeometry x="1473" y="2257" width="30" height="60" as="geometry" />
        </mxCell>
        <mxCell id="Gl-8x7QTO9yD9IyzZU1p-35" value="" style="endArrow=classic;html=1;rounded=0;exitX=0;exitY=0.3333333333333333;exitDx=0;exitDy=0;exitPerimeter=0;entryX=1;entryY=0;entryDx=0;entryDy=0;" parent="1" source="Gl-8x7QTO9yD9IyzZU1p-33" target="Gl-8x7QTO9yD9IyzZU1p-22" edge="1">
          <mxGeometry width="50" height="50" relative="1" as="geometry">
            <mxPoint x="1279" y="2367" as="sourcePoint" />
            <mxPoint x="1329" y="2317" as="targetPoint" />
          </mxGeometry>
        </mxCell>
        <mxCell id="Gl-8x7QTO9yD9IyzZU1p-36" value="&lt;font style=&quot;font-size: 18px;&quot;&gt;Add/remove stock&lt;/font&gt;" style="text;html=1;align=center;verticalAlign=middle;whiteSpace=wrap;rounded=0;rotation=-15;" parent="1" vertex="1">
          <mxGeometry x="1182" y="2304" width="180" height="30" as="geometry" />
        </mxCell>
        <mxCell id="tOMD2bxdD2lX4mAQ1nXo-1" value="Catergorised" style="text;html=1;align=center;verticalAlign=middle;whiteSpace=wrap;rounded=0;" vertex="1" parent="1">
          <mxGeometry x="871" y="379" width="60" height="30" as="geometry" />
        </mxCell>
        <mxCell id="tOMD2bxdD2lX4mAQ1nXo-2" value="Update" style="text;html=1;align=center;verticalAlign=middle;whiteSpace=wrap;rounded=0;" vertex="1" parent="1">
          <mxGeometry x="544" y="89" width="60" height="30" as="geometry" />
        </mxCell>
        <mxCell id="tOMD2bxdD2lX4mAQ1nXo-3" value="pay" style="text;html=1;align=center;verticalAlign=middle;whiteSpace=wrap;rounded=0;" vertex="1" parent="1">
          <mxGeometry x="-221" y="1145" width="60" height="30" as="geometry" />
        </mxCell>
        <mxCell id="tOMD2bxdD2lX4mAQ1nXo-4" value="&lt;font style=&quot;font-size: 18px;&quot;&gt;Address&lt;/font&gt;" style="swimlane;fontStyle=0;childLayout=stackLayout;horizontal=1;startSize=30;horizontalStack=0;resizeParent=1;resizeParentMax=0;resizeLast=0;collapsible=1;marginBottom=0;whiteSpace=wrap;html=1;" vertex="1" parent="1">
          <mxGeometry x="-451" y="-245" width="250" height="200" as="geometry" />
        </mxCell>
        <mxCell id="tOMD2bxdD2lX4mAQ1nXo-5" value="&lt;span style=&quot;font-size: 14px;&quot;&gt;&lt;b&gt;&lt;u&gt;Address_id&lt;/u&gt;&lt;/b&gt;&lt;/span&gt;" style="text;strokeColor=none;fillColor=none;align=center;verticalAlign=middle;spacingLeft=4;spacingRight=4;overflow=hidden;points=[[0,0.5],[1,0.5]];portConstraint=eastwest;rotatable=0;whiteSpace=wrap;html=1;" vertex="1" parent="tOMD2bxdD2lX4mAQ1nXo-4">
          <mxGeometry y="30" width="250" height="30" as="geometry" />
        </mxCell>
        <mxCell id="tOMD2bxdD2lX4mAQ1nXo-6" value="&lt;span style=&quot;font-size: 14px;&quot;&gt;User_id int&lt;/span&gt;" style="text;strokeColor=none;fillColor=none;align=center;verticalAlign=middle;spacingLeft=4;spacingRight=4;overflow=hidden;points=[[0,0.5],[1,0.5]];portConstraint=eastwest;rotatable=0;whiteSpace=wrap;html=1;" vertex="1" parent="tOMD2bxdD2lX4mAQ1nXo-4">
          <mxGeometry y="60" width="250" height="30" as="geometry" />
        </mxCell>
        <mxCell id="tOMD2bxdD2lX4mAQ1nXo-7" value="&lt;span style=&quot;font-size: 14px;&quot;&gt;Address VARCHAR(255)&lt;/span&gt;" style="text;strokeColor=none;fillColor=none;align=center;verticalAlign=middle;spacingLeft=4;spacingRight=4;overflow=hidden;points=[[0,0.5],[1,0.5]];portConstraint=eastwest;rotatable=0;whiteSpace=wrap;html=1;" vertex="1" parent="tOMD2bxdD2lX4mAQ1nXo-4">
          <mxGeometry y="90" width="250" height="20" as="geometry" />
        </mxCell>
        <mxCell id="tOMD2bxdD2lX4mAQ1nXo-9" value="City VARCHAR(100)" style="text;html=1;align=center;verticalAlign=middle;whiteSpace=wrap;rounded=0;" vertex="1" parent="tOMD2bxdD2lX4mAQ1nXo-4">
          <mxGeometry y="110" width="250" height="30" as="geometry" />
        </mxCell>
        <mxCell id="tOMD2bxdD2lX4mAQ1nXo-10" value="&lt;span style=&quot;font-size: 14px;&quot;&gt;State VARCHAR(100)&lt;/span&gt;" style="text;strokeColor=none;fillColor=none;align=center;verticalAlign=middle;spacingLeft=4;spacingRight=4;overflow=hidden;points=[[0,0.5],[1,0.5]];portConstraint=eastwest;rotatable=0;whiteSpace=wrap;html=1;" vertex="1" parent="tOMD2bxdD2lX4mAQ1nXo-4">
          <mxGeometry y="140" width="250" height="30" as="geometry" />
        </mxCell>
        <mxCell id="tOMD2bxdD2lX4mAQ1nXo-11" value="" style="endArrow=none;html=1;rounded=0;exitX=0.135;exitY=1.156;exitDx=0;exitDy=0;exitPerimeter=0;entryX=0.134;entryY=-0.013;entryDx=0;entryDy=0;entryPerimeter=0;" edge="1" parent="tOMD2bxdD2lX4mAQ1nXo-4" source="tOMD2bxdD2lX4mAQ1nXo-12" target="tOMD2bxdD2lX4mAQ1nXo-5">
          <mxGeometry width="50" height="50" relative="1" as="geometry">
            <mxPoint x="33.5" y="231.28999999999996" as="sourcePoint" />
            <mxPoint x="35" y="30" as="targetPoint" />
          </mxGeometry>
        </mxCell>
        <mxCell id="tOMD2bxdD2lX4mAQ1nXo-12" value="&lt;font style=&quot;font-size: 14px;&quot;&gt;Zip Varchar(20)&lt;/font&gt;" style="text;html=1;align=center;verticalAlign=middle;whiteSpace=wrap;rounded=0;" vertex="1" parent="tOMD2bxdD2lX4mAQ1nXo-4">
          <mxGeometry y="170" width="250" height="30" as="geometry" />
        </mxCell>
        <mxCell id="tOMD2bxdD2lX4mAQ1nXo-15" value="&lt;font style=&quot;font-size: 14px;&quot;&gt;PK&lt;/font&gt;" style="text;html=1;align=center;verticalAlign=middle;whiteSpace=wrap;rounded=0;" vertex="1" parent="1">
          <mxGeometry x="-456" y="-214" width="60" height="30" as="geometry" />
        </mxCell>
        <mxCell id="tOMD2bxdD2lX4mAQ1nXo-16" value="FK" style="text;html=1;align=center;verticalAlign=middle;whiteSpace=wrap;rounded=0;" vertex="1" parent="1">
          <mxGeometry x="-461" y="-188" width="60" height="30" as="geometry" />
        </mxCell>
        <mxCell id="tOMD2bxdD2lX4mAQ1nXo-17" value="" style="rhombus;whiteSpace=wrap;html=1;" vertex="1" parent="1">
          <mxGeometry x="-404" y="207" width="80" height="80" as="geometry" />
        </mxCell>
        <mxCell id="tOMD2bxdD2lX4mAQ1nXo-18" value="" style="endArrow=none;html=1;rounded=0;" edge="1" parent="1">
          <mxGeometry width="50" height="50" relative="1" as="geometry">
            <mxPoint x="-363" y="207" as="sourcePoint" />
            <mxPoint x="-358" y="-49" as="targetPoint" />
            <Array as="points" />
          </mxGeometry>
        </mxCell>
        <mxCell id="tOMD2bxdD2lX4mAQ1nXo-19" value="" style="endArrow=none;html=1;rounded=0;entryX=0;entryY=0.833;entryDx=0;entryDy=0;entryPerimeter=0;" edge="1" parent="1" target="lIMlZDT6CVLQSgId9f5q-25">
          <mxGeometry width="50" height="50" relative="1" as="geometry">
            <mxPoint x="-325" y="248" as="sourcePoint" />
            <mxPoint x="-275" y="198" as="targetPoint" />
          </mxGeometry>
        </mxCell>
        <mxCell id="tOMD2bxdD2lX4mAQ1nXo-20" value="Associated" style="text;html=1;align=center;verticalAlign=middle;whiteSpace=wrap;rounded=0;" vertex="1" parent="1">
          <mxGeometry x="-397" y="233" width="60" height="30" as="geometry" />
        </mxCell>
        <mxCell id="tOMD2bxdD2lX4mAQ1nXo-21" value="&lt;font style=&quot;font-size: 14px;&quot;&gt;1&lt;/font&gt;" style="text;html=1;align=center;verticalAlign=middle;whiteSpace=wrap;rounded=0;" vertex="1" parent="1">
          <mxGeometry x="-348" y="-41" width="60" height="30" as="geometry" />
        </mxCell>
        <mxCell id="tOMD2bxdD2lX4mAQ1nXo-22" value="&lt;font style=&quot;font-size: 14px;&quot;&gt;1&lt;/font&gt;" style="text;html=1;align=center;verticalAlign=middle;whiteSpace=wrap;rounded=0;" vertex="1" parent="1">
          <mxGeometry x="-180" y="203" width="60" height="30" as="geometry" />
        </mxCell>
        <mxCell id="tOMD2bxdD2lX4mAQ1nXo-24" value="" style="endArrow=none;html=1;rounded=0;entryX=1;entryY=0;entryDx=0;entryDy=0;entryPerimeter=0;" edge="1" parent="1" target="tOMD2bxdD2lX4mAQ1nXo-27">
          <mxGeometry width="50" height="50" relative="1" as="geometry">
            <mxPoint x="458" y="483" as="sourcePoint" />
            <mxPoint x="455" y="253" as="targetPoint" />
          </mxGeometry>
        </mxCell>
        <mxCell id="tOMD2bxdD2lX4mAQ1nXo-27" value="PK" style="text;html=1;align=center;verticalAlign=middle;whiteSpace=wrap;rounded=0;" vertex="1" parent="1">
          <mxGeometry x="401" y="255" width="60" height="30" as="geometry" />
        </mxCell>
        <mxCell id="tOMD2bxdD2lX4mAQ1nXo-33" value="FK" style="text;html=1;align=center;verticalAlign=middle;whiteSpace=wrap;rounded=0;" vertex="1" parent="1">
          <mxGeometry x="409" y="286" width="60" height="30" as="geometry" />
        </mxCell>
        <mxCell id="tOMD2bxdD2lX4mAQ1nXo-35" value="PK" style="text;html=1;align=center;verticalAlign=middle;whiteSpace=wrap;rounded=0;" vertex="1" parent="1">
          <mxGeometry x="-129" y="1326" width="60" height="30" as="geometry" />
        </mxCell>
        <mxCell id="tOMD2bxdD2lX4mAQ1nXo-36" value="FK" style="text;html=1;align=center;verticalAlign=middle;whiteSpace=wrap;rounded=0;" vertex="1" parent="1">
          <mxGeometry x="-134" y="1367" width="60" height="30" as="geometry" />
        </mxCell>
      </root>
    </mxGraphModel>
  </diagram>
</mxfile>
